<svg width="15" height="18" viewBox="0 0 15 18" fill="none" xmlns="http://www.w3.org/2000/svg">
<g clip-path="url(#clip0_128_56)">
<path d="M12.2366 9.57395C12.2151 7.29954 14.099 6.1921 14.1847 6.14209C13.811 5.60862 13.3181 5.16963 12.7451 4.85998C12.1721 4.55033 11.5348 4.37855 10.8838 4.35828C9.49536 4.21063 8.14977 5.18707 7.44244 5.18707C6.73511 5.18707 5.63243 4.37257 4.45831 4.39639C3.70031 4.4205 2.96142 4.64019 2.31336 5.03411C1.66531 5.42803 1.13011 5.98282 0.759717 6.6446C-0.838325 9.412 0.354847 13.4797 1.8862 15.716C2.65307 16.814 3.55331 18.0357 4.72029 17.9928C5.88726 17.95 6.29451 17.2617 7.68059 17.2617C9.06668 17.2617 9.45249 17.9928 10.648 17.9643C11.8436 17.9357 12.6533 16.864 13.394 15.7589C13.9446 14.9787 14.3682 14.1162 14.6491 13.2035C13.9361 12.9007 13.3275 12.3955 12.8987 11.7504C12.4699 11.1053 12.2397 10.3486 12.2366 9.57395Z" fill="white"/>
<path d="M9.97644 2.88648C10.6484 2.08136 10.9791 1.04554 10.8981 0C10.0074 0.0404869 8.89043 0.619212 8.24741 1.37179C7.67821 2.03625 7.17093 3.12702 7.29477 4.1511C8.30456 4.22493 9.33341 3.6462 9.97644 2.88648Z" fill="white"/>
</g>
<defs>
<clipPath id="clip0_128_56">
<rect width="14.6491" height="18" fill="white"/>
</clipPath>
</defs>
</svg>
