<svg width="11" height="9" viewBox="0 0 11 9" fill="none" xmlns="http://www.w3.org/2000/svg">
<g clip-path="url(#clip0_185_460)">
<path d="M5.28923 9C3.97655 9 2.66387 9 1.35119 9C1.04885 9.0107 0.752256 8.91552 0.512602 8.73089C0.272948 8.54625 0.105271 8.28375 0.0385089 7.98868C0.0129635 7.87429 0.00073147 7.75733 0.00204928 7.64013C0.00204928 6.00143 0.00204928 4.36344 0.00204928 2.72616C0.00204928 1.9304 0.554359 1.37702 1.35441 1.37166C1.83594 1.37166 2.31961 1.37166 2.80007 1.37166C2.84586 1.37797 2.89242 1.36801 2.93162 1.34351C2.97082 1.31901 3.00017 1.28153 3.01456 1.2376C3.1454 0.961983 3.28696 0.690653 3.42102 0.417178C3.47794 0.286948 3.5732 0.177157 3.69409 0.102434C3.81499 0.0277103 3.9558 -0.00839733 4.09774 -0.00107771H6.49573C6.63574 -0.00836353 6.77466 0.0269985 6.89414 0.100336C7.01363 0.173673 7.10805 0.281535 7.16494 0.409671C7.30758 0.701377 7.45665 0.989866 7.59392 1.28264C7.60456 1.31121 7.62456 1.33534 7.65065 1.35111C7.67674 1.36688 7.70739 1.37337 7.73763 1.36951C8.23525 1.36951 8.73286 1.36951 9.23048 1.36951C9.92221 1.36951 10.4445 1.79849 10.5678 2.45483C10.5827 2.54377 10.5895 2.63386 10.5882 2.72402C10.5882 4.36201 10.5882 5.99964 10.5882 7.63691C10.5882 8.30934 10.1935 8.81661 9.56616 8.96353C9.44721 8.98744 9.32605 8.99858 9.20474 8.99678C7.89921 8.99964 6.59404 9.00071 5.28923 9ZM5.28923 7.18434C5.70968 7.18455 6.12074 7.06007 6.47043 6.82663C6.82013 6.5932 7.09274 6.2613 7.25379 5.87292C7.41483 5.48453 7.45708 5.05711 7.37518 4.64472C7.29329 4.23232 7.09093 3.85348 6.7937 3.5561C6.49647 3.25872 6.11773 3.05617 5.70538 2.97407C5.29302 2.89196 4.86558 2.93399 4.47711 3.09484C4.08865 3.25569 3.75661 3.52814 3.523 3.87771C3.28939 4.22729 3.1647 4.63829 3.1647 5.05874C3.16385 5.3383 3.21832 5.61526 3.32498 5.87367C3.43163 6.13209 3.58836 6.36685 3.78613 6.56442C3.98391 6.762 4.21883 6.91849 4.47735 7.02489C4.73587 7.13128 5.01288 7.18547 5.29244 7.18434H5.28923Z" fill="#5D6C83"/>
<path d="M5.29156 6.41646C5.02303 6.41646 4.76052 6.33683 4.53725 6.18764C4.31397 6.03846 4.13995 5.82641 4.03719 5.57832C3.93442 5.33023 3.90754 5.05723 3.95993 4.79386C4.01232 4.53049 4.14162 4.28857 4.3315 4.09869C4.52138 3.90881 4.76331 3.7795 5.02668 3.72711C5.29006 3.67472 5.56304 3.70161 5.81113 3.80437C6.05923 3.90713 6.27127 4.08116 6.42046 4.30443C6.56965 4.52771 6.64928 4.79021 6.64928 5.05874C6.64871 5.41866 6.50549 5.76367 6.25099 6.01817C5.99649 6.27267 5.65148 6.4159 5.29156 6.41646Z" fill="#5D6C83"/>
</g>
<defs>
<clipPath id="clip0_185_460">
<rect width="10.5883" height="9" fill="white"/>
</clipPath>
</defs>
</svg>
