<svg width="17" height="14" viewBox="0 0 17 14" fill="none" xmlns="http://www.w3.org/2000/svg">
<g clip-path="url(#clip0_128_254)">
<path d="M10.9564 6.02561C11.0081 5.98356 11.0634 5.94608 11.1216 5.91361L8.10457 2.89101C8.09337 2.90221 8.07099 2.9204 8.04999 2.9414C5.67186 5.3242 3.29465 7.70794 0.91838 10.0926C0.838956 10.1796 0.783476 10.2857 0.757377 10.4006C0.506777 11.4226 0.265975 12.446 0.0209753 13.4694C-0.0714247 13.8586 0.137179 14.0686 0.531979 13.9762C1.53718 13.7382 2.54238 13.5044 3.54478 13.2538C3.70307 13.2115 3.84775 13.1291 3.96478 13.0144C6.29905 10.6885 8.62959 8.35894 10.9564 6.02561Z" fill="#5D6C83"/>
<path d="M15.4602 12.5944C13.9398 12.5944 8.27541 12.5944 6.75361 12.5944C6.58322 12.5916 6.41765 12.651 6.28795 12.7615C6.15825 12.8721 6.07332 13.0261 6.0491 13.1948C6.02488 13.3635 6.06301 13.5352 6.15637 13.6778C6.24973 13.8204 6.3919 13.924 6.55621 13.9692C6.66054 13.9919 6.76732 14.0013 6.87401 13.9972C9.84481 13.9972 15.4868 13.9972 15.5456 13.9972C15.7313 13.9859 15.9048 13.9013 16.0281 13.762C16.1514 13.6227 16.2142 13.4401 16.2029 13.2545C16.1916 13.0688 16.107 12.8953 15.9677 12.772C15.8284 12.6488 15.6459 12.5859 15.4602 12.5972V12.5944Z" fill="#5D6C83"/>
<path d="M13.4344 3.5518C13.5172 3.47534 13.5949 3.3935 13.6668 3.3068C13.8751 3.05346 13.9863 2.73418 13.9804 2.40627C13.9745 2.07836 13.8519 1.76329 13.6346 1.5176C13.2734 1.1144 12.8926 0.726603 12.495 0.361203C12.228 0.117627 11.8762 -0.011844 11.5149 0.000451059C11.1537 0.0127461 10.8115 0.165832 10.5616 0.427003C10.269 0.722403 9.98063 1.0234 9.68943 1.3216L9.16724 1.8578L12.124 4.8188L13.4344 3.5518Z" fill="#5D6C83"/>
</g>
<defs>
<clipPath id="clip0_128_254">
<rect width="16.1896" height="14" fill="white"/>
</clipPath>
</defs>
</svg>
