<svg width="16" height="16" viewBox="0 0 16 16" fill="none" xmlns="http://www.w3.org/2000/svg">
<g clip-path="url(#clip0_128_273)">
<path d="M11.8879 10.7088C12.9159 9.37695 13.4003 7.70472 13.2436 6.02962C13.0868 4.35451 12.3004 2.80124 11.0431 1.68327C9.78587 0.565299 8.15133 -0.0341314 6.46938 0.00594631C4.78743 0.046024 3.1833 0.722626 1.98071 1.89921C-0.419287 4.22401 -0.675285 8.05601 1.38391 10.7168C2.46634 12.1042 4.05346 13.0073 5.79912 13.2291C7.54478 13.4509 9.30732 12.9734 10.7023 11.9008C10.7455 11.9424 10.7935 11.984 10.8367 12.0288L14.5167 15.7088C14.6637 15.8615 14.8631 15.9527 15.0747 15.9641C15.2864 15.9755 15.4944 15.9061 15.6569 15.77C15.8194 15.634 15.9242 15.4413 15.9501 15.231C15.9761 15.0206 15.9212 14.8083 15.7967 14.6368C15.7513 14.5807 15.7027 14.5273 15.6511 14.4768L12.0319 10.8544C11.9871 10.8096 11.9439 10.7616 11.8879 10.7088ZM6.63511 1.67201C7.6176 1.67296 8.57776 1.96511 9.39427 2.51154C10.2108 3.05797 10.847 3.83417 11.2225 4.74205C11.5981 5.64992 11.6961 6.64875 11.5042 7.61231C11.3123 8.57587 10.8391 9.46093 10.1444 10.1556C9.44963 10.8504 8.56457 11.3236 7.60101 11.5155C6.63745 11.7074 5.63863 11.6094 4.73075 11.2338C3.82287 10.8583 3.04667 10.2221 2.50024 9.40557C1.95381 8.58906 1.66166 7.62889 1.66071 6.64641C1.65881 5.99209 1.78639 5.34386 2.0361 4.73906C2.28581 4.13426 2.65272 3.58484 3.1157 3.12247C3.57867 2.66009 4.12856 2.29388 4.73368 2.04495C5.3388 1.79601 5.9872 1.66926 6.64151 1.67201H6.63511Z" fill="#5D6C83"/>
</g>
<defs>
<clipPath id="clip0_128_273">
<rect width="15.9952" height="16" fill="white" transform="matrix(-1 0 0 1 15.9951 0)"/>
</clipPath>
</defs>
</svg>
