<svg width="25" height="14" viewBox="0 0 25 14" fill="none" xmlns="http://www.w3.org/2000/svg">
<g clip-path="url(#clip0_128_82)">
<path d="M20.2659 0.283042C20.2001 0.203285 20.119 0.137415 20.0275 0.0892651C19.936 0.0411153 19.8358 0.0116465 19.7328 0.00257413C19.6298 -0.00649825 19.526 0.00500726 19.4274 0.0364199C19.3289 0.0678324 19.2376 0.118525 19.1589 0.185549L17.1461 1.87123C11.3689 -0.163537 5.4187 1.31143 0 6.47225C1.23319 8.72486 3.13842 10.5366 5.45015 11.6551L4.34943 12.5765C4.22638 12.6805 4.13822 12.8197 4.09685 12.9753C4.05549 13.131 4.06293 13.2956 4.11817 13.4469C4.1734 13.5981 4.27376 13.7288 4.40567 13.8212C4.53759 13.9136 4.69471 13.9633 4.85576 13.9635C5.03985 13.9645 5.21826 13.8998 5.35894 13.781L20.1684 1.39005C20.2478 1.32398 20.3133 1.24285 20.3612 1.15134C20.4091 1.05982 20.4385 0.959736 20.4475 0.856839C20.4566 0.753943 20.4452 0.65027 20.414 0.551792C20.3829 0.453314 20.3325 0.361977 20.2659 0.283042ZM7.60128 6.95657C7.60128 2.57884 12.5608 1.44666 15.1491 3.55062L13.4005 5.013C13.0481 4.8271 12.6557 4.72993 12.2573 4.72993C11.8589 4.72993 11.4665 4.8271 11.1142 5.013C11.8375 5.73634 10.9915 6.94399 10.026 6.58547C9.96118 6.97686 9.99138 7.3781 10.1141 7.75538L8.22712 9.32784C7.80377 8.61027 7.58717 7.78959 7.60128 6.95657Z" fill="#5D6C83"/>
<path d="M19.9985 3.16379L16.5705 6.03511C16.6233 6.3373 16.6496 6.64352 16.6492 6.95028C16.6492 10.6267 13.1489 12.0136 10.5008 11.1142L8.61389 12.6866C14.2748 13.8125 20.7847 11.4286 24.3731 6.33702C23.0393 5.11765 21.5717 4.05313 19.9985 3.16379Z" fill="#5D6C83"/>
</g>
<defs>
<clipPath id="clip0_128_82">
<rect width="24.37" height="13.9635" fill="white"/>
</clipPath>
</defs>
</svg>
