<svg width="10" height="18" viewBox="0 0 10 18" fill="none" xmlns="http://www.w3.org/2000/svg">
<g clip-path="url(#clip0_128_61)">
<path d="M9.36516 0.00468445H7.02446C4.40287 0.00468445 2.7082 1.74383 2.7082 4.43563V6.47907H0.367499C0.318753 6.47875 0.270443 6.48819 0.225405 6.50684C0.180367 6.52548 0.139505 6.55296 0.105255 6.58765C0.0710053 6.62234 0.0440564 6.66353 0.0259795 6.7088C0.00790262 6.75407 -0.000931876 6.8025 6.61568e-06 6.85124V9.80052C5.6264e-06 9.84867 0.00952579 9.89635 0.0280225 9.9408C0.0465191 9.98526 0.0736285 10.0256 0.107784 10.0596C0.14194 10.0935 0.182475 10.1203 0.227048 10.1386C0.27162 10.1568 0.31935 10.166 0.367499 10.1657H2.7082V17.6349C2.7082 17.683 2.71772 17.7307 2.73622 17.7751C2.75471 17.8196 2.78182 17.8599 2.81598 17.8939C2.85013 17.9278 2.89067 17.9547 2.93524 17.9729C2.97981 17.9911 3.02754 18.0003 3.07569 18H6.13734C6.18548 18.0003 6.23321 17.9911 6.27779 17.9729C6.32236 17.9547 6.36289 17.9278 6.39705 17.8939C6.43121 17.8599 6.4583 17.8196 6.4768 17.7751C6.49529 17.7307 6.50481 17.683 6.50481 17.6349V10.1657H9.26217C9.31032 10.166 9.35805 10.1568 9.40262 10.1386C9.44719 10.1203 9.48773 10.0935 9.52188 10.0596C9.55604 10.0256 9.58315 9.98526 9.60164 9.9408C9.62014 9.89635 9.62966 9.84867 9.62966 9.80052V6.85124C9.62876 6.7535 9.5892 6.66009 9.51964 6.59142C9.45107 6.52371 9.35853 6.48585 9.26217 6.48609H6.5095V4.74461C6.5095 3.91132 6.70847 3.48999 7.78987 3.48999H9.36282C9.41136 3.49031 9.45949 3.48094 9.50437 3.46243C9.54925 3.44393 9.58998 3.41666 9.6242 3.38223C9.65842 3.34779 9.68543 3.30688 9.70365 3.26188C9.72187 3.21688 9.73093 3.1687 9.73031 3.12016V0.372175C9.73062 0.324026 9.7214 0.276291 9.70319 0.231719C9.68498 0.187146 9.65813 0.146616 9.62419 0.11246C9.59025 0.0783045 9.54989 0.0511988 9.50544 0.0327021C9.46098 0.0142054 9.41331 0.00468346 9.36516 0.00468445Z" fill="white"/>
</g>
<defs>
<clipPath id="clip0_128_61">
<rect width="9.7303" height="18" fill="white"/>
</clipPath>
</defs>
</svg>
