<svg width="16" height="14" viewBox="0 0 16 14" fill="none" xmlns="http://www.w3.org/2000/svg">
<g clip-path="url(#clip0_128_283)">
<path d="M7.79101 1.6646C8.26728 1.1716 8.82887 0.768902 9.44861 0.475999C10.7086 -0.100801 11.9812 -0.196002 13.2482 0.422798C14.5152 1.0416 15.1732 2.0888 15.456 3.4216C15.7388 4.7544 15.4658 6.0004 14.8204 7.182C14.1729 8.31947 13.3679 9.3597 12.4292 10.2718C11.0531 11.645 9.54345 12.8776 7.92261 13.951C7.88751 13.9822 7.84218 13.9994 7.79521 13.9994C7.74825 13.9994 7.70292 13.9822 7.66781 13.951C5.67701 12.6042 3.82341 11.102 2.24841 9.282C1.42381 8.33 0.686013 7.315 0.288413 6.1026C-0.246387 4.4478 -0.0727865 2.8616 0.975813 1.4504C1.77381 0.376598 2.91481 -0.0392022 4.23221 0.0503978C5.54961 0.139998 6.65981 0.732199 7.65941 1.561L7.79101 1.6646Z" fill="#5D6C83"/>
</g>
<defs>
<clipPath id="clip0_128_283">
<rect width="15.5638" height="14" fill="white"/>
</clipPath>
</defs>
</svg>
