<svg width="16" height="14" viewBox="0 0 16 14" fill="none" xmlns="http://www.w3.org/2000/svg">
<g clip-path="url(#clip0_128_286)">
<path d="M15.7584 2.6516C15.7596 2.5746 15.753 2.49767 15.7388 2.422C15.6085 1.7375 15.2419 1.12053 14.703 0.678859C14.1641 0.237186 13.4871 -0.00110979 12.7904 0.00559576C9.50456 -0.00560424 6.21876 0.00559576 2.93296 0.00559576C2.5547 0.000454466 2.17919 0.0705887 1.82828 0.211913C1.47737 0.353237 1.15807 0.56293 0.888957 0.828796C0.605091 1.08611 0.379064 1.40073 0.225815 1.75187C0.0725662 2.10302 -0.00441671 2.48269 -4.41709e-05 2.8658C0.0153558 4.5948 -4.41709e-05 6.3238 -4.41709e-05 8.0528C-4.41709e-05 9.8644 -4.41709e-05 11.676 -4.41709e-05 13.489C-0.00851458 13.5911 0.0180726 13.6931 0.0753349 13.7781C0.132597 13.8631 0.217116 13.9261 0.314956 13.9566C0.423257 14.0012 0.542832 14.0108 0.656851 13.9839C0.77087 13.9571 0.873592 13.8951 0.950557 13.8068C1.65056 13.1404 2.36176 12.4768 3.06456 11.809C3.10621 11.7663 3.15647 11.733 3.21199 11.7113C3.26751 11.6896 3.32702 11.6799 3.38656 11.683C6.51882 11.683 9.65016 11.683 12.7806 11.683C13.1725 11.6914 13.562 11.6205 13.9258 11.4744C14.2896 11.3284 14.6201 11.1103 14.8974 10.8332C15.1756 10.5742 15.3965 10.2597 15.5458 9.91004C15.6951 9.56039 15.7694 9.18334 15.764 8.8032C15.7486 6.7522 15.7598 4.7026 15.7584 2.6516ZM8.53716 7.7672C8.47846 7.78123 8.41831 7.78828 8.35796 7.7882C7.07836 7.7882 5.79969 7.7882 4.52196 7.7882C4.13136 7.7882 3.88356 7.4494 4.03056 7.1204C4.06882 7.02731 4.13569 6.94879 4.22151 6.8962C4.30732 6.8436 4.40764 6.81965 4.50796 6.8278H8.28796C8.34857 6.8243 8.40934 6.8243 8.46996 6.8278C8.57853 6.8342 8.68143 6.87847 8.76073 6.95291C8.84003 7.02735 8.89071 7.12724 8.90396 7.2352C8.91294 7.35246 8.88142 7.46926 8.81466 7.56608C8.7479 7.6629 8.64995 7.73389 8.53716 7.7672ZM11.5948 4.942C11.0138 4.942 10.4314 4.942 9.85036 4.942H4.48276C4.18736 4.942 3.98016 4.774 3.95356 4.522C3.93636 4.40279 3.96596 4.28155 4.03616 4.18368C4.10637 4.08581 4.21172 4.01891 4.33016 3.997C4.41183 3.98176 4.49494 3.97565 4.57796 3.9788H11.4632C11.5136 3.9788 11.5626 3.9788 11.613 3.9788C11.6769 3.97729 11.7405 3.98914 11.7997 4.01358C11.8589 4.03802 11.9123 4.07453 11.9565 4.12076C12.0008 4.167 12.0349 4.22195 12.0568 4.28212C12.0786 4.34228 12.0877 4.40634 12.0834 4.4702C12.083 4.53348 12.07 4.59606 12.0451 4.65425C12.0202 4.71243 11.984 4.76506 11.9384 4.80902C11.8929 4.85298 11.839 4.88739 11.78 4.91022C11.721 4.93306 11.658 4.94387 11.5948 4.942Z" fill="#5D6C83"/>
</g>
<defs>
<clipPath id="clip0_128_286">
<rect width="15.7654" height="14" fill="white"/>
</clipPath>
</defs>
</svg>
