<svg width="18" height="18" viewBox="0 0 18 18" fill="none" xmlns="http://www.w3.org/2000/svg">
<g clip-path="url(#clip0_128_49)">
<path d="M17.4752 7.36398H9V10.8452H13.8427C13.749 11.3581 13.5589 11.8486 13.2824 12.2907C12.9664 12.7968 12.5462 13.2297 12.0498 13.5607L14.9577 15.8205C15.9938 14.8573 16.7611 13.6408 17.1839 12.2907C17.4948 11.2915 17.6486 10.25 17.6396 9.20358C17.6398 8.5867 17.5848 7.97104 17.4752 7.36398Z" fill="#3E82F1"/>
<path d="M12.0479 13.5607C11.1406 14.1452 10.079 14.4444 8.99999 14.4198H8.96638C8.15557 14.4086 7.35825 14.2106 6.6363 13.8414C5.91435 13.4722 5.28718 12.9415 4.80348 12.2907C4.46153 11.8369 4.1919 11.3329 4.00414 10.7966C3.99107 10.7649 3.978 10.7331 3.9668 10.7014L1.9255 12.2907L0.956207 13.0378C1.70311 14.5238 2.84685 15.774 4.26068 16.6498C5.67452 17.5257 7.30325 17.993 8.96638 18H9.00373C11.4316 18 13.471 17.1951 14.9595 15.8205L12.0479 13.5607Z" fill="#32A753"/>
<path d="M3.96306 7.28927L1.9255 5.70928L0.956212 4.96223C0.834817 5.20502 0.726498 5.45715 0.625647 5.70928C-0.208793 7.82375 -0.208793 10.1763 0.625647 12.2907C0.726498 12.5466 0.834817 12.7987 0.956212 13.0378L1.9255 12.2907L3.96306 10.7107C3.58707 9.60123 3.58707 8.39877 3.96306 7.28927Z" fill="#F9BB00"/>
<path d="M9.00001 -1.70834e-06H8.96639C7.30411 0.00648772 5.67609 0.473224 4.26286 1.34846C2.84964 2.22369 1.70641 3.47322 0.959961 4.9585L1.92925 5.70554L3.96681 7.28554C3.97802 7.25379 3.99109 7.22204 4.00416 7.19029C4.19278 6.65726 4.46239 6.15647 4.80349 5.70554C5.28738 5.05533 5.91472 4.52548 6.63672 4.15719C7.35873 3.7889 8.15595 3.59209 8.96639 3.58207H9.00375C10.2826 3.56085 11.5184 4.0439 12.4439 4.92675L15.0062 2.36626L15.0249 2.34571C13.3953 0.814504 11.236 -0.0261768 9.00001 -1.70834e-06Z" fill="#E74133"/>
</g>
<defs>
<clipPath id="clip0_128_49">
<rect width="17.6396" height="18" fill="white"/>
</clipPath>
</defs>
</svg>
