<svg width="17" height="14" viewBox="0 0 17 14" fill="none" xmlns="http://www.w3.org/2000/svg">
<g clip-path="url(#clip0_128_357)">
<path d="M9.17517 5.89319C9.21437 5.9338 9.24937 5.9786 9.30677 6.04301H1.14397C1.07676 6.04301 1.00394 6.04301 0.942336 6.04301C0.761417 6.05017 0.586298 6.10876 0.437503 6.21193C0.288707 6.31509 0.172405 6.45855 0.102252 6.62547C0.0237306 6.78619 -0.00705062 6.96605 0.013547 7.14373C0.0341445 7.32142 0.105268 7.48947 0.218475 7.62796C0.319189 7.75995 0.450725 7.86522 0.601582 7.93455C0.752439 8.00387 0.918002 8.03514 1.08375 8.02561C3.75149 8.02561 6.41922 8.02561 9.08696 8.02561H9.33478C8.83773 8.51986 8.37989 8.9693 7.93464 9.42575C7.83192 9.51597 7.74884 9.62635 7.69059 9.75005C7.63234 9.87374 7.60016 10.0081 7.59604 10.1448C7.59193 10.2814 7.61595 10.4175 7.66665 10.5444C7.71735 10.6714 7.79363 10.7866 7.89074 10.8828C7.98785 10.9791 8.10371 11.0543 8.23113 11.1039C8.35856 11.1534 8.49482 11.1763 8.63143 11.1709C8.76805 11.1656 8.90211 11.1322 9.02527 11.0728C9.14844 11.0135 9.25808 10.9294 9.34738 10.8259C10.3742 9.79912 11.4009 8.77235 12.4277 7.74558C12.5278 7.65229 12.6077 7.53938 12.6623 7.41388C12.7169 7.28838 12.7451 7.15297 12.7451 7.0161C12.7451 6.87923 12.7169 6.74383 12.6623 6.61833C12.6077 6.49283 12.5278 6.37992 12.4277 6.28663C12.1659 6.0192 11.8998 5.75878 11.6366 5.49415C10.8787 4.73808 10.1217 3.98107 9.36558 3.22312C9.26443 3.10734 9.13747 3.01697 8.99494 2.95932C8.8524 2.90168 8.69831 2.87837 8.5451 2.89129C8.35605 2.90277 8.17483 2.97087 8.02501 3.08674C7.87518 3.2026 7.76368 3.36087 7.70502 3.54096C7.63522 3.71608 7.61858 3.90789 7.65718 4.09241C7.69578 4.27694 7.7879 4.44599 7.92203 4.57846C8.32667 5.0293 8.75372 5.45915 9.17517 5.89319Z" fill="#5D6C83"/>
<path d="M15.5066 0.00140173C13.7648 0.00140173 12.0235 0.00140173 10.2827 0.00140173C10.019 0.00140173 9.76618 0.106137 9.57975 0.292567C9.39332 0.478997 9.28858 0.73185 9.28858 0.995502C9.28858 1.25952 9.39346 1.51273 9.58016 1.69943C9.76685 1.88612 10.02 1.991 10.2841 1.991H14.5405V12.0048H10.2841C10.1534 12.0046 10.024 12.0302 9.90322 12.0801C9.78245 12.1299 9.6727 12.2031 9.58024 12.2955C9.48778 12.3878 9.41444 12.4975 9.36439 12.6182C9.31435 12.7389 9.28858 12.8682 9.28858 12.9989C9.28839 13.1296 9.31397 13.259 9.36385 13.3798C9.41372 13.5005 9.48692 13.6103 9.57925 13.7027C9.67158 13.7952 9.78124 13.8685 9.90194 13.9186C10.0226 13.9686 10.152 13.9944 10.2827 13.9944C12.0245 13.9944 13.7662 13.9944 15.508 13.9944C15.78 13.9933 16.0404 13.8846 16.2325 13.692C16.4245 13.4994 16.5325 13.2387 16.5329 12.9667C16.5329 8.9903 16.5329 5.01344 16.5329 1.03611C16.5381 0.899532 16.5153 0.763339 16.4656 0.635988C16.416 0.508636 16.3408 0.392846 16.2445 0.29581C16.1483 0.198774 16.0331 0.122566 15.9062 0.0719193C15.7792 0.0212727 15.6432 -0.00273006 15.5066 0.00140173Z" fill="#5D6C83"/>
</g>
<defs>
<clipPath id="clip0_128_357">
<rect width="16.5343" height="14" fill="white"/>
</clipPath>
</defs>
</svg>
