<svg width="17" height="14" viewBox="0 0 17 14" fill="none" xmlns="http://www.w3.org/2000/svg">
<g clip-path="url(#clip0_128_305)">
<path d="M3.55217 8.15162C3.51296 8.11102 3.47797 8.06622 3.42196 8.00181H11.5848C11.652 8.00181 11.7248 8.00181 11.7864 8.00181C11.967 7.99427 12.1418 7.93568 12.2905 7.83284C12.4392 7.72999 12.5557 7.58711 12.6265 7.42075C12.7053 7.25977 12.7361 7.07952 12.7152 6.90151C12.6944 6.7235 12.6227 6.55526 12.5089 6.41685C12.4083 6.28514 12.2769 6.18013 12.1263 6.11104C11.9757 6.04196 11.8104 6.0109 11.645 6.02061C8.97818 6.02061 6.31044 6.02061 3.64178 6.02061H3.39395C3.8896 5.52496 4.34885 5.07551 4.79409 4.62047C4.89448 4.52975 4.97533 4.41953 5.0317 4.29652C5.08806 4.17352 5.11875 4.04031 5.12191 3.90504C5.12506 3.76977 5.1006 3.63528 5.05004 3.50978C4.99947 3.38428 4.92385 3.27041 4.82779 3.17512C4.73174 3.07982 4.61726 3.00511 4.49136 2.95554C4.36546 2.90597 4.23078 2.88259 4.09554 2.88682C3.9603 2.89106 3.82735 2.92281 3.70479 2.98015C3.58224 3.03749 3.47266 3.11922 3.38275 3.22033C2.35599 4.2471 1.32922 5.27387 0.302446 6.30064C0.202331 6.3938 0.122479 6.50659 0.0678818 6.63198C0.0132845 6.75736 -0.0148926 6.89265 -0.0148926 7.02941C-0.0148926 7.16617 0.0132845 7.30146 0.0678818 7.42684C0.122479 7.55223 0.202331 7.66502 0.302446 7.75818C0.562872 8.02561 0.830303 8.28604 1.09353 8.55066C1.85054 9.30767 2.60754 10.0651 3.36455 10.8231C3.46584 10.9386 3.59286 11.0287 3.73539 11.0861C3.87791 11.1435 4.03194 11.1666 4.18503 11.1535C4.37419 11.1424 4.55559 11.0745 4.70549 10.9585C4.85538 10.8426 4.96679 10.6841 5.02512 10.5039C5.09546 10.3289 5.11252 10.1371 5.07415 9.95251C5.03579 9.76791 4.9437 9.59877 4.80949 9.46635C4.40205 9.01551 3.97501 8.58566 3.55217 8.15162Z" fill="#5D6C83"/>
<path d="M15.5066 0.00140338C13.7648 0.00140338 12.0235 0.00140338 10.2827 0.00140338C10.019 0.00214376 9.76638 0.10731 9.58007 0.293883C9.39376 0.480455 9.28894 0.733238 9.28857 0.996905C9.28857 1.12757 9.31435 1.25695 9.36439 1.37765C9.41444 1.49835 9.48778 1.608 9.58024 1.70033C9.6727 1.79266 9.78245 1.86586 9.90322 1.91573C10.024 1.96561 10.1534 1.99119 10.2841 1.991H14.5405V12.0048H10.2841C10.02 12.0048 9.76685 12.1097 9.58016 12.2964C9.39346 12.4831 9.28857 12.7363 9.28857 13.0003C9.28857 13.2641 9.39327 13.5171 9.57966 13.7037C9.76605 13.8904 10.0189 13.9954 10.2827 13.9958C12.0245 13.9958 13.7662 13.9958 15.508 13.9958C15.7798 13.9951 16.0403 13.8867 16.2324 13.6943C16.4245 13.502 16.5325 13.2413 16.5329 12.9695C16.5329 8.99123 16.5329 5.0139 16.5329 1.03751C16.5383 0.900818 16.5156 0.764475 16.4661 0.636957C16.4165 0.509439 16.3413 0.393476 16.2451 0.296288C16.1488 0.1991 16.0335 0.122766 15.9065 0.0720342C15.7795 0.0213026 15.6433 -0.00273964 15.5066 0.00140338Z" fill="#5D6C83"/>
</g>
<defs>
<clipPath id="clip0_128_305">
<rect width="16.5343" height="14" fill="white"/>
</clipPath>
</defs>
</svg>
