<svg width="13" height="16" viewBox="0 0 13 16" fill="none" xmlns="http://www.w3.org/2000/svg">
<g clip-path="url(#clip0_128_265)">
<path d="M12.077 4.91999C11.7919 3.54288 11.0454 2.30431 9.96077 1.40911C8.87619 0.513918 7.51854 0.0157218 6.11236 -0.00308228H6.08775L5.86621 0.0107633C5.68928 0.023071 5.50774 0.0338407 5.32621 0.0569176C5.10215 0.0858433 4.88017 0.129009 4.66159 0.18615C3.67711 0.438851 2.76998 0.930057 2.02032 1.6164C1.27065 2.30275 0.701507 3.16311 0.363133 4.12153C0.0177768 5.09131 -0.0835785 6.13119 0.0680137 7.14941C0.219606 8.16762 0.619484 9.13288 1.23236 9.96C2.22621 11.3046 3.24467 12.6646 4.23082 13.98L5.46159 15.6138C5.53102 15.7254 5.62653 15.8184 5.7399 15.8849C5.85326 15.9514 5.98109 15.9893 6.11236 15.9954C6.24486 15.9894 6.3739 15.9513 6.48836 15.8843C6.60281 15.8173 6.69923 15.7234 6.76928 15.6108C7.17031 15.0723 7.57339 14.5344 7.97852 13.9969C8.96159 12.6846 9.97851 11.3277 10.9677 9.98461C11.5112 9.27261 11.8921 8.45023 12.0838 7.57526C12.2754 6.70029 12.2731 5.79397 12.077 4.91999ZM9.71082 9.18307C8.85698 10.3431 7.97851 11.5154 7.12928 12.6492L6.10159 14.0215L5.02467 12.5908L4.22928 11.5292C3.63851 10.7431 3.02775 9.92923 2.43544 9.12307C1.98492 8.53604 1.67899 7.85115 1.54241 7.12388C1.40583 6.39662 1.44244 5.64741 1.64928 4.93692C2.06159 3.51692 3.13082 2.32153 4.43698 1.81077C4.97228 1.60598 5.54076 1.50168 6.1139 1.50307C7.69544 1.50307 9.34467 2.30769 10.2324 4.17538C11.0708 5.89384 10.8908 7.58153 9.71082 9.18307Z" fill="#5D6C83"/>
<path d="M6.09225 3.15076C5.37036 3.15155 4.67802 3.43752 4.16598 3.94638C3.65394 4.45525 3.36368 5.14581 3.35841 5.86768C3.35739 6.22812 3.42766 6.5852 3.56517 6.91838C3.70268 7.25155 3.90472 7.55426 4.15966 7.80905C4.41461 8.06385 4.71741 8.26572 5.05067 8.40304C5.38393 8.54037 5.74105 8.61044 6.10148 8.60922C6.82532 8.60922 7.51951 8.32168 8.03134 7.80985C8.54317 7.29802 8.83071 6.60382 8.83071 5.87999C8.83071 5.15615 8.54317 4.46196 8.03134 3.95013C7.51951 3.4383 6.82532 3.15076 6.10148 3.15076H6.09225ZM7.34148 5.87999C7.3429 6.04303 7.31219 6.20476 7.25111 6.35593C7.19003 6.50711 7.09976 6.64477 6.98548 6.76106C6.87119 6.87735 6.73511 6.96998 6.58502 7.03368C6.43493 7.09738 6.27376 7.13089 6.11071 7.1323C5.94265 7.13357 5.776 7.10145 5.62045 7.0378C5.46489 6.97416 5.32353 6.88025 5.20456 6.76153C5.03022 6.58622 4.91167 6.36323 4.86385 6.12067C4.81603 5.8781 4.84108 5.6268 4.93584 5.39845C5.0306 5.17009 5.19084 4.9749 5.39636 4.83746C5.60188 4.70003 5.84348 4.62649 6.09071 4.62614C6.42272 4.62696 6.74085 4.75942 6.97533 4.99447C7.20981 5.22952 7.34149 5.54798 7.34148 5.87999Z" fill="#5D6C83"/>
</g>
<defs>
<clipPath id="clip0_128_265">
<rect width="12.2215" height="16" fill="white"/>
</clipPath>
</defs>
</svg>
