<svg width="13" height="14" viewBox="0 0 13 14" fill="none" xmlns="http://www.w3.org/2000/svg">
<g clip-path="url(#clip0_128_308)">
<path d="M12.5664 2.5858C12.5664 2.177 12.3732 1.9726 11.963 1.9222C11.1585 1.82719 10.3661 1.6489 9.59843 1.3902C8.57833 1.03339 7.58664 0.600019 6.63183 0.093797C6.5261 0.0303744 6.40513 -0.00312805 6.28183 -0.00312805C6.15854 -0.00312805 6.03756 0.0303744 5.93183 0.093797C5.16652 0.509257 4.37092 0.866339 3.55183 1.162C2.58988 1.51869 1.59034 1.76435 0.572637 1.8942C0.414446 1.90428 0.266301 1.97523 0.159285 2.09217C0.0522692 2.2091 -0.00530795 2.36293 -0.00136786 2.5214C-0.0342982 3.73466 0.0666485 4.94786 0.299636 6.139C0.61562 7.80489 1.29172 9.38165 2.28064 10.759C3.23563 12.0513 4.46544 13.1157 5.88144 13.8754C5.99797 13.9502 6.13276 13.9918 6.2712 13.9955C6.40965 13.9992 6.54647 13.9649 6.66683 13.8964C8.68143 12.7764 10.2438 11.2266 11.2616 9.1476C12.159 7.315 12.5146 5.3606 12.5622 3.3978C12.5678 3.0898 12.5692 2.8378 12.5664 2.5858ZM8.86343 5.6266C8.81485 5.68549 8.76247 5.74114 8.70663 5.7932L6.04663 8.4532C5.76663 8.7332 5.57483 8.7332 5.30183 8.4602C4.79503 7.9548 4.29104 7.448 3.78424 6.9454C3.71935 6.89234 3.67093 6.82189 3.64465 6.74229C3.61836 6.6627 3.61531 6.57727 3.63584 6.496C3.65541 6.42506 3.69377 6.36073 3.74687 6.30978C3.79997 6.25883 3.86583 6.22316 3.93752 6.20653C4.0092 6.1899 4.08404 6.19292 4.15415 6.21529C4.22425 6.23765 4.28703 6.27853 4.33584 6.3336C4.72784 6.7158 5.11284 7.1078 5.50064 7.4942C5.55384 7.5474 5.60984 7.5978 5.67284 7.6566C5.73444 7.5978 5.78904 7.5474 5.84224 7.4942C6.62344 6.71487 7.40417 5.93553 8.18444 5.1562C8.24828 5.08377 8.32774 5.0268 8.41683 4.9896C8.49947 4.96138 8.589 4.96056 8.67214 4.98725C8.75528 5.01394 8.82759 5.06672 8.87836 5.13777C8.92913 5.20881 8.95564 5.29432 8.95396 5.38163C8.95228 5.46893 8.9225 5.55336 8.86904 5.6224L8.86343 5.6266Z" fill="#5D6C83"/>
</g>
<defs>
<clipPath id="clip0_128_308">
<rect width="12.5678" height="14" fill="white"/>
</clipPath>
</defs>
</svg>
