<svg width="16" height="16" viewBox="0 0 16 16" fill="none" xmlns="http://www.w3.org/2000/svg">
<g clip-path="url(#clip0_128_297)">
<path d="M15.6496 7.1216C15.2408 6.44707 15.0321 5.67021 15.048 4.88161C15.0614 4.58401 14.99 4.28873 14.8422 4.03012C14.6943 3.77151 14.4761 3.56021 14.2128 3.42081C13.5171 3.05179 12.9435 2.48874 12.5616 1.80001C12.1984 1.16001 11.616 0.868806 10.88 0.892806C10.2422 0.917753 9.61078 0.757129 9.0624 0.430406C8.7248 0.232006 8.32961 0.134409 7.96641 -0.00479126C7.61921 0.108809 7.288 0.155209 7.0272 0.315209C6.35352 0.725885 5.57596 0.934162 4.7872 0.915209C4.48098 0.911073 4.17946 0.990718 3.91523 1.14554C3.65099 1.30035 3.4341 1.52445 3.288 1.79361C3.216 1.91361 3.1392 2.03201 3.0704 2.15361C2.85795 2.55272 2.53891 2.88505 2.1488 3.11361C1.90991 3.26102 1.67918 3.42126 1.4576 3.59361C1.26529 3.73556 1.10775 3.91936 0.996878 4.13113C0.886007 4.34289 0.824702 4.57708 0.817601 4.81601C0.801601 5.02081 0.801607 5.22561 0.793607 5.43201C0.779207 5.84641 0.728001 6.25601 0.488001 6.60801C-0.161599 7.56801 -0.151999 8.50721 0.488001 9.48001C0.657601 9.73921 0.708804 10.0864 0.771204 10.4016C0.808709 10.6607 0.826897 10.9222 0.825609 11.184C0.856009 11.792 1.08161 12.3168 1.62561 12.6112C2.36636 13.0124 2.97701 13.6169 3.38561 14.3536C3.53388 14.6169 3.75367 14.8328 4.01955 14.9764C4.28543 15.1199 4.58653 15.1853 4.888 15.1648C5.60996 15.1342 6.3245 15.3209 6.9392 15.7008C7.24157 15.9024 7.59724 16.0092 7.96067 16.0075C8.3241 16.0058 8.67875 15.8957 8.9792 15.6912C9.56958 15.3253 10.2545 15.1411 10.9488 15.1616C11.3017 15.1807 11.6523 15.0951 11.9567 14.9154C12.261 14.7358 12.5054 14.4702 12.6592 14.152C12.9433 13.5798 13.3977 13.1097 13.96 12.8064C14.76 12.3872 15.1376 11.728 15.08 10.8144C15.0438 10.2785 15.1819 9.74536 15.4736 9.29441C15.5488 9.17601 15.6032 9.0464 15.6672 8.92161C15.8291 8.64863 15.913 8.3365 15.9099 8.01915C15.9068 7.7018 15.8168 7.39136 15.6496 7.1216ZM7.912 13.6032C6.80985 13.5981 5.73393 13.2665 4.82023 12.6501C3.90652 12.0337 3.19603 11.1603 2.77857 10.1403C2.3611 9.12022 2.2554 7.99931 2.4748 6.9192C2.6942 5.83909 3.22886 4.84826 4.01122 4.07194C4.79359 3.29561 5.78853 2.76863 6.87031 2.5576C7.95208 2.34657 9.07213 2.46096 10.0889 2.88631C11.1057 3.31166 11.9736 4.02889 12.5829 4.94734C13.1921 5.86579 13.5155 6.94425 13.512 8.04641C13.5112 8.77955 13.3654 9.50529 13.0832 10.1819C12.8009 10.8585 12.3877 11.4727 11.8673 11.9891C11.3469 12.5055 10.7296 12.9139 10.0508 13.191C9.37198 13.468 8.64513 13.6081 7.912 13.6032Z" fill="#5D6C83"/>
<path d="M10.9488 6.584C10.456 6.4864 9.95525 6.424 9.45445 6.368C9.37235 6.36302 9.29348 6.33417 9.22754 6.285C9.1616 6.23583 9.11145 6.16848 9.08325 6.09121C8.86085 5.64001 8.62085 5.1968 8.39525 4.7472C8.29445 4.5456 8.18725 4.368 7.92485 4.3744C7.66245 4.3808 7.57605 4.5504 7.48325 4.7424C7.27205 5.1792 7.04325 5.60801 6.84325 6.05121C6.81158 6.13714 6.75485 6.21159 6.6804 6.26493C6.60595 6.31827 6.51721 6.34805 6.42565 6.35041C5.92485 6.40801 5.42405 6.47201 4.93125 6.56961C4.8492 6.58362 4.77126 6.61555 4.70295 6.66311C4.63464 6.71068 4.57766 6.77271 4.53605 6.84481C4.52855 6.92759 4.53895 7.01102 4.56656 7.08943C4.59417 7.16784 4.63834 7.23938 4.69605 7.2992C5.04485 7.6752 5.41445 8.03521 5.79365 8.38081C5.8695 8.441 5.92536 8.52271 5.95392 8.61523C5.98247 8.70775 5.98238 8.80674 5.95365 8.8992C5.84965 9.4288 5.76965 9.96481 5.68965 10.44C5.68005 10.856 5.97125 11.0464 6.29445 10.8816C6.79365 10.6267 7.28805 10.3637 7.77765 10.0928C7.83446 10.0556 7.90092 10.0357 7.96885 10.0357C8.03678 10.0357 8.10323 10.0556 8.16005 10.0928C8.64005 10.36 9.13125 10.6112 9.61605 10.8704C9.83525 10.9872 10.0528 10.984 10.1792 10.7648C10.2393 10.62 10.2538 10.4604 10.2208 10.3072C10.1504 9.8272 10.0608 9.33121 9.96965 8.84641C9.94834 8.76637 9.95076 8.68186 9.97661 8.60317C10.0025 8.52449 10.0506 8.45501 10.1153 8.4032C10.4897 8.0656 10.8449 7.70721 11.2112 7.36001C11.36 7.21921 11.5185 7.048 11.3969 6.8544C11.2858 6.71232 11.1263 6.61607 10.9488 6.584Z" fill="#5D6C83"/>
</g>
<defs>
<clipPath id="clip0_128_297">
<rect width="15.9072" height="16" fill="white"/>
</clipPath>
</defs>
</svg>
