<svg width="24" height="14" viewBox="0 0 24 14" fill="none" xmlns="http://www.w3.org/2000/svg">
<g clip-path="url(#clip0_128_300)">
<path d="M15.2207 9.0132C14.6607 8.9026 14.0853 8.8242 13.5127 8.7668C13.4195 8.76162 13.3298 8.72894 13.2551 8.67289C13.1803 8.61683 13.1238 8.5399 13.0927 8.4518C12.8379 7.9366 12.5649 7.4298 12.3059 6.9118C12.1911 6.6822 12.0693 6.4792 11.7697 6.4918C11.4701 6.5044 11.3707 6.692 11.2643 6.9118C11.0235 7.4102 10.7617 7.9002 10.5363 8.4056C10.5 8.50372 10.4351 8.5887 10.35 8.64959C10.2649 8.71048 10.1635 8.74448 10.0589 8.7472C9.48774 8.813 8.91514 8.8872 8.35094 8.9978C8.17874 9.0314 7.94635 9.17 7.90015 9.3114C7.85395 9.4528 7.96455 9.7006 8.08355 9.8308C8.48115 10.2606 8.90395 10.6708 9.34355 11.0656C9.4278 11.1361 9.48945 11.2299 9.52082 11.3352C9.55218 11.4405 9.55188 11.5527 9.51995 11.6578C9.40095 12.264 9.30854 12.8758 9.21754 13.4176C9.20634 13.8936 9.53954 14.1106 9.90914 13.9216C10.4794 13.6323 11.0441 13.3322 11.6031 13.0214C11.6677 12.9785 11.7434 12.9557 11.8208 12.9557C11.8983 12.9557 11.974 12.9785 12.0385 13.0214C12.5887 13.3252 13.1473 13.6136 13.7017 13.909C13.9523 14.042 14.2015 14.0392 14.3443 13.7872C14.4138 13.6228 14.431 13.4409 14.3933 13.2664C14.3135 12.7064 14.2113 12.1464 14.1063 11.5962C14.082 11.505 14.0846 11.4087 14.1139 11.319C14.1432 11.2293 14.198 11.15 14.2715 11.0908C14.6915 10.7044 15.1115 10.297 15.5231 9.8994C15.6925 9.7384 15.8745 9.5424 15.7359 9.3226C15.6082 9.15946 15.4248 9.04927 15.2207 9.0132Z" fill="#5D6C83"/>
<path d="M7.33306 2.52273C6.77306 2.41213 6.19625 2.33373 5.62505 2.27633C5.53177 2.27115 5.44211 2.23847 5.36737 2.18242C5.29262 2.12636 5.23615 2.04943 5.20505 1.96133C4.94885 1.44613 4.67726 0.939328 4.41826 0.421328C4.30346 0.193128 4.18165 -0.00987234 3.88065 0.00132766C3.57965 0.0125277 3.48165 0.201528 3.37665 0.421328C3.13585 0.921128 2.87405 1.41113 2.64725 1.91513C2.61156 2.01351 2.54706 2.09885 2.46215 2.16003C2.37724 2.22122 2.27588 2.2554 2.17126 2.25813C1.60006 2.32253 1.02746 2.39813 0.463255 2.50733C0.291055 2.54093 0.0586508 2.68093 0.0124508 2.82233C-0.0337492 2.96373 0.0768504 3.21153 0.19585 3.34033C0.59345 3.77153 1.01485 4.18033 1.44885 4.57653C1.53284 4.64694 1.59432 4.74045 1.62568 4.84546C1.65704 4.95048 1.65689 5.0624 1.62525 5.16733C1.50625 5.77353 1.41386 6.38533 1.32286 6.92853C1.31166 7.40313 1.64486 7.62013 2.01446 7.43253C2.58379 7.14319 3.14799 6.84313 3.70705 6.53233C3.77185 6.48952 3.84779 6.4667 3.92545 6.4667C4.00311 6.4667 4.07906 6.48952 4.14385 6.53233C4.69405 6.83753 5.25265 7.12593 5.80705 7.42133C6.05625 7.55433 6.30686 7.55153 6.44966 7.29953C6.51848 7.13443 6.53556 6.95234 6.49865 6.77733C6.41745 6.21733 6.31666 5.65733 6.21166 5.10853C6.18709 5.01734 6.18963 4.92098 6.21897 4.83122C6.24831 4.74146 6.30318 4.6622 6.37685 4.60313C6.79685 4.21673 7.21685 3.80793 7.62845 3.41173C7.79785 3.25073 7.97986 3.05473 7.84126 2.83493C7.71575 2.6722 7.53494 2.56112 7.33306 2.52273Z" fill="#5D6C83"/>
<path d="M23.6138 2.835C23.489 2.67285 23.3092 2.56184 23.1084 2.5228C22.5484 2.4122 21.973 2.3338 21.4004 2.2764C21.3072 2.27086 21.2177 2.23805 21.143 2.18204C21.0683 2.12604 21.0118 2.0493 20.9804 1.9614C20.7256 1.4462 20.4526 0.939404 20.1936 0.421404C20.0788 0.193204 19.957 -0.00979604 19.6574 0.00140396C19.3578 0.012604 19.2584 0.201604 19.152 0.421404C18.9112 0.921204 18.6494 1.4112 18.424 1.9152C18.3879 2.01359 18.3231 2.09887 18.238 2.16002C18.1528 2.22117 18.0513 2.25538 17.9466 2.25821C17.3754 2.32261 16.8028 2.39821 16.2386 2.50741C16.0678 2.54101 15.834 2.68101 15.7892 2.82241C15.7444 2.96381 15.8522 3.2116 15.9712 3.3404C16.3688 3.7716 16.7916 4.18041 17.2312 4.57661C17.3161 4.64632 17.3782 4.7398 17.4096 4.84506C17.4411 4.95031 17.4403 5.06256 17.4076 5.16741C17.2886 5.77361 17.1976 6.3854 17.1052 6.9286C17.0954 7.4032 17.4272 7.6202 17.7968 7.4326C18.367 7.14327 18.9317 6.84321 19.4908 6.53241C19.5553 6.48954 19.631 6.46668 19.7085 6.46668C19.7859 6.46668 19.8617 6.48954 19.9262 6.53241C20.4764 6.83761 21.035 7.126 21.5908 7.4214C21.84 7.5544 22.0892 7.5516 22.2334 7.2996C22.3017 7.13437 22.3183 6.95228 22.281 6.77741C22.2012 6.21741 22.099 5.6574 22.001 5.1086C21.9764 5.01742 21.979 4.92106 22.0083 4.8313C22.0376 4.74154 22.0925 4.66227 22.1662 4.60321C22.5932 4.21681 23.0062 3.808 23.4178 3.4118C23.5718 3.2508 23.7524 3.0548 23.6138 2.835Z" fill="#5D6C83"/>
</g>
<defs>
<clipPath id="clip0_128_300">
<rect width="23.6642" height="14" fill="white"/>
</clipPath>
</defs>
</svg>
