<svg width="16" height="16" viewBox="0 0 16 16" fill="none" xmlns="http://www.w3.org/2000/svg">
<g clip-path="url(#clip0_128_293)">
<path d="M15.9809 6.97505C15.9736 6.7079 15.8755 6.45121 15.7027 6.24732C15.5299 6.04343 15.2928 5.90451 15.0304 5.85347C14.8554 5.82212 14.6775 5.80885 14.4997 5.81386H14.3793C14.0292 5.81386 14.0292 5.81386 13.8946 5.49703L13.8233 5.33861L13.8027 5.29109L13.9358 5.16277C14.0625 5.04079 14.1892 4.91882 14.3128 4.79208C14.4289 4.67601 14.521 4.53821 14.5839 4.38653C14.6467 4.23486 14.679 4.07229 14.679 3.90812C14.679 3.74394 14.6467 3.58138 14.5839 3.42971C14.521 3.27804 14.4289 3.14023 14.3128 3.02416C13.8835 2.58377 13.4447 2.14495 13.009 1.7204C12.8909 1.59896 12.7497 1.50244 12.5936 1.43653C12.4376 1.37061 12.2699 1.33665 12.1005 1.33665C11.9311 1.33665 11.7635 1.37061 11.6074 1.43653C11.4514 1.50244 11.3101 1.59896 11.192 1.7204C11.0716 1.83921 10.956 1.96277 10.8451 2.08158L10.731 2.20357L10.6138 2.15445C10.4918 2.10535 10.3778 2.05782 10.2605 2.01663C10.194 1.99287 10.1797 1.97386 10.1829 1.90575C10.1908 1.69188 10.1829 1.48436 10.1829 1.25307C10.1865 0.938438 10.0678 0.634698 9.85173 0.405939C9.63568 0.17718 9.33922 0.0412876 9.02489 0.0269311C8.35479 0.00158459 7.6641 0.00158459 6.97499 0.0269311C6.65731 0.0401211 6.35742 0.177148 6.13951 0.40868C5.9216 0.640212 5.80298 0.947851 5.80905 1.26574C5.80905 1.44159 5.80905 1.61743 5.80905 1.79327V1.97862L5.70608 2.02297C5.57776 2.08 5.4542 2.13228 5.32905 2.18139C5.29725 2.18292 5.26591 2.17341 5.24034 2.15445C5.15321 2.07525 5.06925 1.99604 4.98687 1.90575C4.90449 1.81545 4.85063 1.76792 4.77934 1.70139C4.54252 1.46966 4.22435 1.33989 3.89301 1.33989C3.56167 1.33989 3.2435 1.46966 3.00667 1.70139C2.53142 2.15763 2.08311 2.6107 1.66014 3.04951C1.45411 3.26538 1.33246 3.54806 1.31734 3.84609C1.30222 4.14411 1.39464 4.43766 1.57776 4.67327C1.64408 4.75482 1.7155 4.83207 1.79162 4.90456L1.85182 4.96317C2.19558 5.3101 2.19558 5.3101 1.99598 5.75525C1.98376 5.7725 1.96822 5.78714 1.95027 5.79829C1.93231 5.80945 1.9123 5.8169 1.89142 5.8202C1.75994 5.8297 1.6237 5.8202 1.49222 5.8202C1.4035 5.8202 1.31479 5.8202 1.22766 5.8202C0.917127 5.82133 0.618749 5.941 0.393501 6.15477C0.168253 6.36853 0.0331412 6.66025 0.0157792 6.9703C-0.00639905 7.60396 -0.00639905 8.28515 0.0157792 9.04079C0.0279021 9.30294 0.126249 9.55375 0.295545 9.75427C0.464841 9.95479 0.695612 10.0938 0.952017 10.1497C1.08657 10.1765 1.22354 10.1892 1.36073 10.1877C1.4035 10.1877 1.44628 10.1877 1.48746 10.1877C1.5504 10.1882 1.61331 10.1856 1.67598 10.1798C1.77141 10.1615 1.87004 10.1697 1.96113 10.2036C2.02129 10.2691 2.06286 10.3495 2.08152 10.4364C2.10099 10.5048 2.12699 10.5711 2.15915 10.6345C2.19241 10.6978 2.18766 10.7216 2.12271 10.7802C1.9643 10.9386 1.80588 11.097 1.67598 11.2269C1.44439 11.4597 1.31438 11.7746 1.31438 12.103C1.31438 12.4313 1.44439 12.7463 1.67598 12.979C2.13855 13.4543 2.57419 13.8915 3.00984 14.3113C3.24667 14.543 3.56483 14.6728 3.89617 14.6728C4.22752 14.6728 4.54568 14.543 4.78251 14.3113C4.85063 14.2479 4.91558 14.183 4.98053 14.1164L5.05657 14.0388C5.28311 13.8139 5.28311 13.8139 5.56984 13.9311L5.76944 14.0087L5.81221 14.0261V14.2194C5.81221 14.4016 5.81221 14.5822 5.81221 14.7644C5.8117 15.0749 5.93011 15.3738 6.14311 15.5998C6.35611 15.8258 6.64754 15.9616 6.95756 15.9794C7.30449 15.9937 7.65459 16 8.00469 16C8.35479 16 8.68747 16 9.02806 15.981C9.34239 15.9666 9.63885 15.8307 9.8549 15.602C10.0709 15.3732 10.1897 15.0695 10.1861 14.7549C10.1861 14.6646 10.1861 14.5758 10.1861 14.4871C10.1861 14.3541 10.1861 14.221 10.1861 14.0895C10.191 14.0579 10.2074 14.0292 10.232 14.0087C10.3508 13.9517 10.4776 13.9026 10.6106 13.8503L10.7279 13.8028L10.8372 13.92C10.9465 14.0388 11.0574 14.1576 11.1746 14.2733C11.2931 14.3994 11.4362 14.4999 11.595 14.5686C11.7539 14.6373 11.9251 14.6728 12.0982 14.6728C12.2712 14.6728 12.4424 14.6373 12.6013 14.5686C12.7601 14.4999 12.9032 14.3994 13.0217 14.2733C13.4336 13.8693 13.8629 13.44 14.289 12.9964C14.4101 12.8802 14.5064 12.7408 14.5722 12.5864C14.638 12.4321 14.6719 12.266 14.6719 12.0982C14.6719 11.9304 14.638 11.7644 14.5722 11.61C14.5064 11.4557 14.4101 11.3162 14.289 11.2C14.1671 11.078 14.0419 10.9592 13.9168 10.842L13.7916 10.7248L14.0182 10.183H14.2178C14.3984 10.183 14.5742 10.183 14.7485 10.183C15.0634 10.1861 15.3673 10.0665 15.5956 9.84942C15.8239 9.63237 15.9587 9.33495 15.9714 9.0202C16.0015 8.38812 16.0031 7.71802 15.9809 6.97505ZM7.99202 11.1667C7.36681 11.1644 6.75626 10.9772 6.23724 10.6286C5.71823 10.28 5.31395 9.78563 5.07531 9.20775C4.83667 8.62987 4.77434 7.99431 4.89617 7.38107C5.018 6.76784 5.31853 6.20437 5.75994 5.76159C6.12824 5.39214 6.58207 5.11934 7.08113 4.96743C7.58019 4.81552 8.10905 4.78918 8.62073 4.89077C9.13242 4.99235 9.6111 5.21872 10.0143 5.54975C10.4175 5.88079 10.7327 6.30626 10.9319 6.78839C11.1311 7.27051 11.2083 7.79437 11.1564 8.31346C11.1045 8.83255 10.9253 9.3308 10.6346 9.76396C10.3439 10.1971 9.95071 10.5518 9.48999 10.7965C9.02928 11.0412 8.51527 11.1684 7.9936 11.1667H7.99202Z" fill="#5D6C83"/>
</g>
<defs>
<clipPath id="clip0_128_293">
<rect width="15.9968" height="16" fill="white"/>
</clipPath>
</defs>
</svg>
