<svg width="16" height="16" viewBox="0 0 16 16" fill="none" xmlns="http://www.w3.org/2000/svg">
<g clip-path="url(#clip0_128_277)">
<path d="M15.981 6.97506C15.9737 6.70791 15.8756 6.45122 15.7028 6.24733C15.53 6.04344 15.2929 5.90452 15.0305 5.85348C14.8556 5.82135 14.6776 5.80807 14.4998 5.81387H14.3794C14.0293 5.81387 14.0293 5.81387 13.8947 5.49704C13.8709 5.44476 13.8488 5.3909 13.8234 5.33862L13.8012 5.2911L13.9359 5.16279C14.0626 5.04081 14.1893 4.91883 14.3113 4.79209C14.4274 4.67602 14.5195 4.53822 14.5824 4.38654C14.6452 4.23487 14.6776 4.0723 14.6776 3.90813C14.6776 3.74396 14.6452 3.58139 14.5824 3.42972C14.5195 3.27805 14.4274 3.14024 14.3113 3.02417C13.882 2.58378 13.4432 2.14496 13.0076 1.72041C12.8895 1.59898 12.7482 1.50245 12.5922 1.43654C12.4361 1.37062 12.2684 1.33666 12.0991 1.33666C11.9297 1.33666 11.762 1.37062 11.6059 1.43654C11.4499 1.50245 11.3086 1.59898 11.1905 1.72041C11.0701 1.83764 10.9545 1.9612 10.842 2.0816L10.728 2.20358L10.6107 2.15447C10.4903 2.10536 10.3747 2.05784 10.2591 2.01665C10.1925 1.99288 10.1783 1.97387 10.1798 1.90417C10.1893 1.69189 10.1798 1.48278 10.1798 1.25308C10.1843 0.93848 10.066 0.63452 9.85014 0.405631C9.63426 0.176741 9.33773 0.0409153 9.02341 0.0269445C8.35331 0.00159794 7.66262 0.00159794 6.97351 0.0269445C6.65569 0.0401309 6.35564 0.177103 6.13747 0.408589C5.9193 0.640076 5.80033 0.947713 5.80598 1.26576C5.80598 1.4416 5.80598 1.61744 5.80598 1.7917V1.98021L5.70301 2.02457C5.57311 2.08001 5.45113 2.13388 5.32598 2.18298C5.29435 2.18525 5.26294 2.17627 5.23727 2.15764C5.15014 2.07843 5.06618 1.99922 4.98222 1.90892C4.89826 1.81863 4.84757 1.7711 4.77628 1.70457C4.53945 1.47283 4.22129 1.34307 3.88994 1.34307C3.5586 1.34307 3.24044 1.47283 3.00361 1.70457C2.52836 2.16081 2.08004 2.61387 1.65549 3.05269C1.44976 3.26872 1.32832 3.55136 1.3132 3.84929C1.29809 4.14723 1.39031 4.4407 1.57311 4.67645C1.64041 4.75764 1.71234 4.83486 1.78856 4.90773L1.84717 4.96635C2.19252 5.31328 2.19252 5.31328 1.99291 5.75843C1.96782 5.79313 1.93042 5.81693 1.88836 5.82496C1.75687 5.83288 1.62064 5.83288 1.48915 5.82496C1.40044 5.82496 1.31173 5.82496 1.2246 5.82496C0.914063 5.82609 0.615686 5.94577 0.390438 6.15953C0.16519 6.3733 0.0300783 6.66501 0.0127162 6.97506C-0.00946198 7.60873 -0.0110461 8.28992 0.0127162 9.04556C0.024574 9.30779 0.122828 9.55873 0.292168 9.75931C0.461508 9.95988 0.692425 10.0988 0.948954 10.1545C1.08362 10.1805 1.22051 10.1932 1.35767 10.1925H1.4844C1.54718 10.1964 1.61014 10.1964 1.67292 10.1925C1.76835 10.1742 1.86698 10.1824 1.95806 10.2163C2.01825 10.2815 2.05934 10.3621 2.07687 10.4491C2.09778 10.517 2.12373 10.5832 2.1545 10.6471C2.18935 10.7105 2.18302 10.7343 2.11965 10.7929C1.96123 10.9513 1.80282 11.1097 1.67133 11.2396C1.44012 11.4726 1.31038 11.7875 1.31038 12.1157C1.31038 12.4439 1.44012 12.7588 1.67133 12.9917C2.13232 13.4669 2.56955 13.9042 3.00519 14.324C3.24202 14.5557 3.56019 14.6855 3.89153 14.6855C4.22287 14.6855 4.54104 14.5557 4.77787 14.324C4.84599 14.2606 4.91094 14.1941 4.97589 14.1291L5.05192 14.0515C5.27846 13.8265 5.27846 13.8265 5.56519 13.9422L5.76321 14.0214L5.80757 14.0388V14.2321C5.80757 14.4143 5.80757 14.5949 5.80757 14.777C5.80706 15.0876 5.92546 15.3865 6.13846 15.6125C6.35146 15.8384 6.64289 15.9743 6.95291 15.9921C7.29984 16.0048 7.64836 16.0127 8.00004 16.0127C8.35173 16.0127 8.68282 16.0127 9.02341 15.9937C9.33773 15.9797 9.63426 15.8439 9.85014 15.615C10.066 15.3861 10.1843 15.0821 10.1798 14.7675C10.1798 14.6772 10.1798 14.5885 10.1798 14.4982C10.1798 14.3667 10.1798 14.2337 10.1798 14.1006C10.1852 14.0696 10.2015 14.0414 10.2258 14.0214C10.3446 13.9644 10.4697 13.9153 10.6044 13.863L10.7216 13.8155L10.8309 13.9327C10.9402 14.0515 11.0511 14.1703 11.1668 14.286C11.2853 14.4123 11.4285 14.513 11.5875 14.5819C11.7465 14.6508 11.9179 14.6863 12.0911 14.6863C12.2644 14.6863 12.4358 14.6508 12.5948 14.5819C12.7538 14.513 12.897 14.4123 13.0155 14.286C13.4274 13.8836 13.8551 13.4543 14.2907 13.0107C14.412 12.8946 14.5085 12.7552 14.5744 12.6008C14.6403 12.4465 14.6743 12.2803 14.6743 12.1125C14.6743 11.9446 14.6403 11.7785 14.5744 11.6242C14.5085 11.4698 14.412 11.3304 14.2907 11.2143C14.1703 11.0923 14.0436 10.9735 13.92 10.8563L13.7949 10.739L14.0214 10.1972H14.221C14.4016 10.1972 14.5759 10.1972 14.7517 10.1972C15.0666 10.2004 15.3702 10.0807 15.5983 9.86359C15.8263 9.64649 15.9608 9.34908 15.9731 9.03447C16.0016 8.38813 16.0016 7.71803 15.981 6.97506ZM14.7787 8.85071C14.7831 8.88726 14.7747 8.92423 14.7549 8.95526C14.7207 8.97586 14.6803 8.98371 14.6408 8.97744C14.3414 8.97744 14.0389 8.97744 13.7442 8.97744H13.627C13.4815 8.97067 13.3381 9.01423 13.2209 9.10079C13.1038 9.18735 13.0201 9.31162 12.9838 9.45268C12.8539 9.79962 12.7066 10.1561 12.5466 10.5109C12.4696 10.6361 12.4398 10.7845 12.4625 10.9297C12.4851 11.0749 12.5587 11.2072 12.6701 11.303C12.8983 11.5359 13.1454 11.7782 13.3878 12.019C13.4321 12.0618 13.4543 12.0951 13.4543 12.1172C13.4464 12.1522 13.4268 12.1835 13.3989 12.206C13.0171 12.5766 12.6179 12.9759 12.1791 13.4226C12.1347 13.4685 12.1125 13.4749 12.103 13.4749C12.0935 13.4749 12.0697 13.4749 12.027 13.4242C11.7941 13.1818 11.5517 12.9489 11.2967 12.6907C11.0416 12.4325 10.8214 12.4135 10.4935 12.5656C10.1656 12.7176 9.82658 12.8523 9.43529 12.9996C9.29852 13.0382 9.17871 13.1217 9.0951 13.2366C9.0115 13.3516 8.96895 13.4913 8.9743 13.6333V13.7252C8.9743 14.0277 8.9743 14.3398 8.9743 14.6487C8.98092 14.6909 8.97251 14.7341 8.95054 14.7707C8.91691 14.7914 8.87733 14.8004 8.83806 14.7961C8.27568 14.7961 7.71014 14.7961 7.15569 14.7961C7.11662 14.8004 7.0772 14.792 7.04321 14.7723C7.02149 14.735 7.01311 14.6914 7.01945 14.6487C7.02737 14.3319 7.01945 14.0151 7.01945 13.6982V13.6317C7.0248 13.4897 6.98225 13.35 6.89865 13.2351C6.81504 13.1201 6.69523 13.0367 6.55846 12.998C6.20044 12.8634 5.83925 12.7145 5.48123 12.5545C5.37726 12.5042 5.26397 12.4762 5.14856 12.4721C5.06575 12.4745 4.98428 12.4937 4.90912 12.5286C4.83396 12.5634 4.76667 12.6132 4.71133 12.6749C4.48796 12.8951 4.22499 13.1501 3.96677 13.4226C3.924 13.4669 3.90183 13.4733 3.89074 13.4733C3.88123 13.4733 3.85905 13.4733 3.8147 13.421C3.37588 12.9743 2.97668 12.5751 2.5949 12.2044C2.55846 12.1679 2.53786 12.1378 2.53786 12.1157C2.53786 12.0935 2.56163 12.0602 2.6044 12.019C2.82777 11.8052 3.04638 11.5834 3.25865 11.3679L3.30935 11.3172C3.55965 11.0622 3.5945 10.842 3.43767 10.4966C3.29034 10.1798 3.15094 9.83763 3.00995 9.45744C2.97369 9.31637 2.88994 9.1921 2.7728 9.10554C2.65566 9.01898 2.51227 8.97542 2.36678 8.98219H2.24955C1.95489 8.98219 1.65232 8.98219 1.35291 8.98219C1.31347 8.98847 1.27307 8.98061 1.23885 8.96001C1.21902 8.92898 1.21062 8.89201 1.21509 8.85546C1.21509 8.2915 1.21509 7.71803 1.21509 7.15407C1.209 7.13532 1.20843 7.11521 1.21343 7.09613C1.21844 7.07706 1.22881 7.05982 1.24333 7.04647C1.25785 7.03313 1.27589 7.02423 1.29531 7.02084C1.31474 7.01744 1.33473 7.0197 1.35291 7.02734C1.65549 7.02734 1.96282 7.02734 2.26064 7.02734H2.36678C2.51227 7.03411 2.65566 6.99055 2.7728 6.90399C2.88994 6.81743 2.97369 6.69316 3.00995 6.55209C3.13985 6.20516 3.28717 5.85031 3.44717 5.49546C3.52103 5.36942 3.54908 5.22173 3.52657 5.07739C3.50405 4.93305 3.43235 4.80093 3.32361 4.70338C3.09549 4.47051 2.84836 4.22813 2.6044 3.98734C2.56163 3.94457 2.53786 3.91289 2.53786 3.89071C2.53786 3.86853 2.55846 3.83843 2.5949 3.80199C2.97351 3.43289 3.37272 3.03526 3.8147 2.58536C3.85905 2.53942 3.88123 2.5315 3.89232 2.5315C3.90182 2.5315 3.924 2.53942 3.96677 2.58378C4.20915 2.83566 4.45628 3.07962 4.69707 3.31566C4.93787 3.5517 5.17232 3.59288 5.50024 3.44239C5.82816 3.29189 6.164 3.15565 6.55846 3.00674C6.69611 2.96965 6.81692 2.88655 6.90079 2.77127C6.98466 2.65599 7.02653 2.51547 7.01945 2.37308V2.1814C7.01945 1.91843 7.02737 1.64595 7.01945 1.37665C7.01104 1.32845 7.02062 1.27884 7.04638 1.23724C7.09291 1.20907 7.14855 1.19998 7.20163 1.21189C7.39331 1.21982 7.58658 1.21189 7.77351 1.21189H8.24875C8.43093 1.21189 8.61945 1.21189 8.80638 1.21189C8.88559 1.21189 8.93311 1.21189 8.95529 1.24041C8.98105 1.28201 8.99063 1.33162 8.98222 1.37981C8.97113 1.62694 8.98222 1.87724 8.98222 2.11962V2.35566C8.98222 2.6915 9.12796 2.88635 9.45747 3.0115C9.78697 3.13664 10.1466 3.28081 10.4951 3.44081C10.8436 3.60081 11.0511 3.55645 11.2983 3.31407C11.5454 3.07169 11.7989 2.82298 12.0286 2.58219C12.0713 2.53783 12.0935 2.52992 12.1046 2.52992C12.1141 2.52992 12.1363 2.53783 12.1806 2.58219C12.621 3.03209 13.0202 3.42972 13.3989 3.80041C13.4369 3.83684 13.4559 3.86694 13.4559 3.88912C13.4559 3.9113 13.4337 3.94457 13.3909 3.98576C13.1771 4.1917 12.9648 4.40556 12.7573 4.6115L12.6812 4.68754C12.4309 4.94259 12.3961 5.16278 12.5529 5.50813C12.6987 5.82496 12.8381 6.16556 12.9806 6.54576C13.0169 6.68683 13.1006 6.8111 13.2178 6.89765C13.3349 6.98421 13.4783 7.02777 13.6238 7.02101H13.7299C14.0262 7.02101 14.3351 7.02101 14.6377 7.02101C14.6771 7.01473 14.7175 7.02258 14.7517 7.04318C14.7716 7.07421 14.78 7.11118 14.7755 7.14774C14.7723 7.71803 14.7723 8.2915 14.7787 8.85071V8.85071Z" fill="#5D6C83"/>
<path d="M7.99368 4.22971C7.00732 4.24993 6.06819 4.65596 5.37777 5.36068C4.68735 6.06539 4.30066 7.01265 4.30066 7.99921C4.30066 8.98577 4.68735 9.93303 5.37777 10.6377C6.06819 11.3425 7.00732 11.7485 7.99368 11.7687C8.98003 11.7485 9.91916 11.3425 10.6096 10.6377C11.3 9.93303 11.6867 8.98577 11.6867 7.99921C11.6867 7.01265 11.3 6.06539 10.6096 5.36068C9.91916 4.65596 8.98003 4.24993 7.99368 4.22971V4.22971ZM6.18298 9.80753C5.76447 9.38851 5.50417 8.83735 5.44645 8.24794C5.38872 7.65853 5.53714 7.06734 5.86642 6.57508C6.19569 6.08283 6.68545 5.71997 7.25226 5.54831C7.81906 5.37666 8.42785 5.40683 8.97491 5.63369C9.52196 5.86056 9.97344 6.27007 10.2524 6.79248C10.5314 7.31488 10.6206 7.91784 10.5049 8.49866C10.3892 9.07947 10.0757 9.60219 9.61776 9.97777C9.15986 10.3534 8.5859 10.5586 7.99368 10.5584V10.5584C7.65766 10.5593 7.32481 10.4934 7.01451 10.3645C6.7042 10.2356 6.42262 10.0463 6.18615 9.80753H6.18298Z" fill="#5D6C83"/>
</g>
<defs>
<clipPath id="clip0_128_277">
<rect width="15.9968" height="16" fill="white"/>
</clipPath>
</defs>
</svg>
