<svg width="11" height="14" viewBox="0 0 11 14" fill="none" xmlns="http://www.w3.org/2000/svg">
<g clip-path="url(#clip0_128_290)">
<path d="M10.4327 3.7044H7.56274C7.12594 3.7044 6.99294 3.5742 6.99294 3.1444C6.99294 2.1868 6.99294 1.23013 6.99294 0.2744V-0.00139999H0.586542C0.111942 -0.00139999 0.00134277 0.109202 0.00134277 0.582402C0.00134277 4.8524 0.00134277 9.1224 0.00134277 13.3924C0.00134277 13.8894 0.110543 13.9986 0.614543 13.9986H10.0813C10.5825 13.9986 10.6987 13.8852 10.6987 13.3924V3.7044H10.4327ZM2.38834 5.376C2.47784 5.36359 2.56824 5.35891 2.65854 5.362H8.03594C8.12625 5.35894 8.21664 5.36363 8.30614 5.376C8.39722 5.38756 8.48096 5.43187 8.54176 5.50065C8.60256 5.56944 8.63625 5.658 8.63654 5.7498C8.64694 5.83725 8.6259 5.92555 8.57716 5.99891C8.52843 6.07226 8.45518 6.12589 8.37054 6.1502C8.27706 6.17823 8.17968 6.19099 8.08214 6.188C6.25934 6.188 4.43654 6.188 2.61374 6.188C2.51631 6.19074 2.41903 6.17847 2.32534 6.1516C2.24058 6.12732 2.16719 6.07374 2.11823 6.00042C2.06926 5.92711 2.0479 5.83879 2.05794 5.7512C2.05789 5.65916 2.09142 5.57026 2.15225 5.50118C2.21308 5.4321 2.29703 5.38759 2.38834 5.376ZM6.74654 10.9382C6.70254 10.9909 6.6481 11.0339 6.58666 11.0645C6.52521 11.0951 6.4581 11.1126 6.38954 11.116C4.49114 11.1272 4.40294 11.1244 2.50454 11.116C2.4482 11.1207 2.39151 11.1136 2.33804 11.0953C2.28457 11.0769 2.23548 11.0477 2.19388 11.0094C2.15229 10.9711 2.11909 10.9246 2.09638 10.8728C2.07367 10.8211 2.06194 10.7651 2.06194 10.7086C2.06194 10.6521 2.07367 10.5961 2.09638 10.5444C2.11909 10.4926 2.15229 10.4461 2.19388 10.4078C2.23548 10.3695 2.28457 10.3403 2.33804 10.3219C2.39151 10.3036 2.4482 10.2965 2.50454 10.3012C3.45234 10.3012 5.44454 10.3012 6.38814 10.3012C6.57154 10.3012 6.73254 10.3656 6.78294 10.5392C6.8036 10.6048 6.81102 10.6739 6.80477 10.7424C6.79852 10.8108 6.77872 10.8774 6.74654 10.9382ZM8.64075 8.2866C8.63551 8.3785 8.59692 8.46532 8.53223 8.53079C8.46753 8.59626 8.38117 8.63587 8.28934 8.6422C8.21447 8.64991 8.13917 8.65272 8.06394 8.6506H5.32415C4.39035 8.6506 3.45655 8.6506 2.52415 8.6506C2.15735 8.6506 1.94595 8.3384 2.10415 8.0486C2.14816 7.97323 2.21316 7.91231 2.29123 7.87328C2.36929 7.83425 2.45704 7.81879 2.54374 7.8288H8.07934C8.17684 7.82455 8.27436 7.83686 8.36774 7.8652C8.45674 7.8896 8.53344 7.9463 8.58289 8.02422C8.63233 8.10214 8.65096 8.19569 8.63514 8.2866H8.64075Z" fill="#5D6C83"/>
<path d="M7.83997 0.166603V2.8714H10.5434L7.83997 0.166603Z" fill="#5D6C83"/>
</g>
<defs>
<clipPath id="clip0_128_290">
<rect width="10.6974" height="14" fill="white"/>
</clipPath>
</defs>
</svg>
