<svg width="226" height="64" viewBox="0 0 226 64" fill="none" xmlns="http://www.w3.org/2000/svg">
<g clip-path="url(#clip0_96_314)">
<path d="M71.6562 29.4492C73.2659 29.5817 74.8503 29.9311 76.3657 30.4878C77.4 30.8481 78.3032 31.507 78.9602 32.3804C79.5211 33.2516 79.8018 34.2725 79.7648 35.3069C79.7804 36.543 79.3319 37.7403 78.5073 38.6643C77.5765 39.6773 76.3962 40.4307 75.0833 40.8498C73.4678 41.3705 71.7773 41.6224 70.0796 41.5954C68.2843 41.6382 66.4948 41.3761 64.7879 40.8204C63.5447 40.4354 62.4271 39.7269 61.5507 38.7681C60.8653 37.974 60.4858 36.9631 60.4799 35.916C60.4756 35.8382 60.4871 35.7603 60.5139 35.687C60.5406 35.6137 60.582 35.5466 60.6355 35.4898C60.7628 35.3844 60.9245 35.3292 61.09 35.3348H66.5746C66.7418 35.3278 66.9086 35.3549 67.0648 35.4144C67.2211 35.4738 67.3636 35.5643 67.4835 35.6804C67.7698 35.9547 68.1185 36.1557 68.4999 36.2663C69.0194 36.3685 69.5486 36.4132 70.078 36.3996C71.7724 36.3996 72.6195 36.1413 72.6195 35.6246C72.6154 35.5128 72.5809 35.4042 72.5198 35.3104C72.4587 35.2165 72.3732 35.1408 72.2725 35.0914C71.9123 34.8785 71.5116 34.7423 71.0959 34.6915C70.5428 34.5675 69.7221 34.443 68.6337 34.3179C66.6394 34.1849 64.7092 33.5624 63.0152 32.5059C62.3824 32.0593 61.872 31.4618 61.5308 30.768C61.1896 30.0743 61.0284 29.3065 61.062 28.5347C61.0434 27.3754 61.4283 26.2455 62.1514 25.3369C62.9705 24.3506 64.0431 23.6043 65.2548 23.1777C66.7641 22.6357 68.3602 22.373 69.9644 22.4027C71.6304 22.3674 73.2866 22.6663 74.8343 23.2816C76.0504 23.7303 77.142 24.4609 78.0186 25.4129C78.6725 26.0901 79.0593 26.9795 79.108 27.9178C79.1113 27.9983 79.0961 28.0784 79.0638 28.1523C79.0314 28.2261 78.9827 28.2916 78.9213 28.344C78.8594 28.3988 78.7872 28.4406 78.7089 28.4673C78.6306 28.4939 78.5478 28.5047 78.4653 28.499H72.7067C72.4001 28.4979 72.1048 28.3842 71.8772 28.1797C71.6729 27.9971 71.4372 27.8527 71.1815 27.7535C70.7835 27.6297 70.3667 27.5772 69.9504 27.5985C68.7551 27.5985 68.1574 27.847 68.1574 28.344C68.1574 28.6106 68.3893 28.824 68.8531 28.9842C69.7744 29.2091 70.7114 29.3645 71.6562 29.4492ZM103.966 40.4019C104.036 40.5039 104.073 40.6242 104.074 40.7475C104.073 40.8275 104.057 40.9066 104.024 40.9798C103.992 41.0531 103.946 41.1191 103.887 41.1738C103.834 41.2254 103.771 41.2658 103.702 41.2925C103.633 41.3191 103.559 41.3315 103.485 41.3288H96.5829C96.4001 41.3375 96.2177 41.3035 96.0505 41.2295C95.8832 41.1554 95.7356 41.0435 95.6195 40.9025L90.9644 35.1673V40.6034C90.962 40.7934 90.8852 40.9749 90.7503 41.1093C90.6153 41.2436 90.4331 41.3202 90.2423 41.3226H84.7296C84.5387 41.3206 84.3562 41.2442 84.2212 41.1097C84.0862 40.9753 84.0095 40.7935 84.0075 40.6034V23.3994C84.0095 23.2093 84.0862 23.0275 84.2212 22.893C84.3562 22.7586 84.5387 22.6822 84.7296 22.6802H90.2423C90.4331 22.6826 90.6153 22.7591 90.7503 22.8935C90.8852 23.0278 90.962 23.2094 90.9644 23.3994V28.4091L95.1915 23.139C95.3127 22.9949 95.4645 22.8796 95.636 22.8013C95.8075 22.723 95.9943 22.6837 96.1829 22.6864H102.631C102.782 22.6999 102.924 22.766 103.032 22.8731C103.139 22.9802 103.206 23.1214 103.219 23.2723C103.221 23.4088 103.174 23.5415 103.085 23.6458L96.7448 31.3465L103.966 40.4019ZM125.444 22.6802C125.521 22.6789 125.597 22.695 125.666 22.7272C125.736 22.7594 125.797 22.8069 125.846 22.8662C125.903 22.9103 125.95 22.9668 125.982 23.0315C126.015 23.0963 126.032 23.1674 126.032 23.2397C126.031 23.3509 126.004 23.4603 125.953 23.559L119.209 34.6713V40.6142C119.207 40.8043 119.131 40.9861 118.996 41.1206C118.861 41.255 118.678 41.3314 118.487 41.3334H112.789C112.598 41.3314 112.416 41.255 112.281 41.1206C112.146 40.9861 112.069 40.8043 112.067 40.6142V34.6729L105.351 23.5606C105.302 23.4704 105.275 23.3702 105.271 23.2676C105.268 23.1939 105.28 23.1204 105.307 23.0516C105.334 22.9828 105.374 22.9202 105.426 22.8677C105.481 22.8093 105.547 22.7626 105.621 22.7306C105.694 22.6986 105.774 22.682 105.854 22.6817H111.501C111.724 22.6701 111.946 22.7223 112.14 22.8321C112.335 22.942 112.493 23.1049 112.598 23.3017L115.622 28.5719L118.725 23.3482C118.832 23.1443 118.994 22.9739 119.192 22.8562C119.391 22.7385 119.618 22.6781 119.849 22.6817L125.444 22.6802Z" fill="#012042"/>
<path d="M156.404 35.8679C156.595 35.87 156.778 35.9464 156.913 36.0808C157.048 36.2153 157.124 36.397 157.126 36.5872V40.6173C157.124 40.8074 157.048 40.9892 156.913 41.1236C156.778 41.2581 156.595 41.3345 156.404 41.3365H140.778C140.588 41.3341 140.405 41.2575 140.27 41.1232C140.135 40.9888 140.059 40.8073 140.056 40.6173V23.3963C140.059 23.2063 140.135 23.0247 140.27 22.8904C140.405 22.756 140.588 22.6795 140.778 22.677H146.559C146.75 22.6791 146.932 22.7555 147.067 22.8899C147.202 23.0244 147.279 23.2061 147.281 23.3963V35.8679H156.404ZM166.561 40.4251C166.49 40.6879 166.333 40.9197 166.116 41.0839C165.898 41.2481 165.631 41.3353 165.358 41.3319H160.301C160.223 41.3371 160.144 41.3256 160.07 41.298C159.996 41.2704 159.929 41.2274 159.874 41.1719C159.818 41.1164 159.775 41.0497 159.747 40.9762C159.719 40.9028 159.708 40.8242 159.713 40.7459L159.74 40.5909L165.565 23.5575C165.639 23.318 165.778 23.1035 165.967 22.9375C166.19 22.75 166.478 22.6546 166.77 22.6708H174.208C174.5 22.6548 174.787 22.7501 175.011 22.9375C175.199 23.1035 175.338 23.318 175.412 23.5575L181.245 40.5863L181.272 40.7413C181.272 40.8213 181.255 40.9003 181.223 40.9736C181.191 41.0469 181.144 41.1129 181.085 41.1676C181.032 41.2192 180.969 41.2596 180.9 41.2863C180.831 41.3129 180.758 41.3253 180.684 41.3226H175.627C175.354 41.326 175.087 41.2388 174.869 41.0746C174.651 40.9104 174.495 40.6786 174.424 40.4158L173.755 38.5557H167.23L166.561 40.4251ZM170.494 27.8201L168.594 33.3631H172.393L170.494 27.8201ZM200.8 31.6038C201.543 31.8538 202.177 32.3528 202.593 33.0159C203.094 33.7347 203.356 34.5926 203.341 35.468C203.401 36.3054 203.258 37.1449 202.922 37.9151C202.587 38.6853 202.069 39.3634 201.414 39.8919C199.745 40.9583 197.775 41.4625 195.796 41.3303H184.772C184.581 41.3279 184.399 41.2514 184.264 41.117C184.129 40.9826 184.052 40.8011 184.05 40.6111V23.3963C184.052 23.2063 184.129 23.0247 184.264 22.8904C184.399 22.756 184.581 22.6795 184.772 22.677H195.528C197.494 22.5241 199.456 23.0104 201.12 24.0628C201.738 24.5516 202.228 25.1835 202.545 25.9034C202.862 26.6233 202.998 27.4095 202.941 28.1937V28.2743C202.963 29.06 202.718 29.8301 202.245 30.4598C201.892 30.9787 201.387 31.3777 200.8 31.6038ZM195.688 28.4324C195.695 28.1305 195.59 27.8367 195.394 27.6062C195.298 27.4887 195.175 27.3959 195.035 27.3357C194.895 27.2756 194.743 27.2498 194.591 27.2605H191.012V29.6848H194.591C194.746 29.6948 194.9 29.6658 195.041 29.6005C195.181 29.5352 195.303 29.4357 195.394 29.3112C195.585 29.0584 195.689 28.7504 195.688 28.4339V28.4324ZM194.887 36.7468C195.06 36.7599 195.233 36.7302 195.392 36.6605C195.55 36.5907 195.689 36.483 195.796 36.3469C196.004 36.0811 196.117 35.7539 196.118 35.4169V35.3905C196.122 35.0637 195.998 34.7482 195.771 34.5117C195.662 34.3873 195.525 34.2891 195.373 34.2244C195.22 34.1597 195.054 34.1302 194.889 34.1381H191.008V36.7499L194.887 36.7468ZM217.353 29.4445C218.962 29.5771 220.546 29.9265 222.061 30.4831C223.095 30.8434 223.999 31.5023 224.656 32.3757C225.217 33.2485 225.497 34.2711 225.459 35.3068C225.474 36.5429 225.026 37.7403 224.201 38.6642C223.271 39.6777 222.09 40.4312 220.777 40.8498C219.162 41.3704 217.471 41.6223 215.773 41.5954C213.978 41.6383 212.189 41.3762 210.482 40.8203C209.238 40.4356 208.12 39.7271 207.243 38.7681C206.558 37.974 206.178 36.9631 206.172 35.916C206.168 35.8382 206.179 35.7602 206.206 35.687C206.233 35.6137 206.274 35.5466 206.328 35.4897C206.456 35.3841 206.618 35.329 206.784 35.3347H212.268C212.436 35.3275 212.603 35.3545 212.76 35.4139C212.916 35.4733 213.059 35.564 213.179 35.6804C213.465 35.9546 213.814 36.1557 214.195 36.2663C214.715 36.3685 215.244 36.4132 215.773 36.3996C217.468 36.3996 218.315 36.1413 218.315 35.6246C218.311 35.5128 218.276 35.4042 218.215 35.3103C218.154 35.2165 218.069 35.1408 217.968 35.0914C217.608 34.8783 217.207 34.7422 216.791 34.6915C216.238 34.5675 215.418 34.4429 214.331 34.3179C212.336 34.1851 210.405 33.5625 208.711 32.5059C208.078 32.0591 207.568 31.4616 207.226 30.7679C206.885 30.0742 206.724 29.3064 206.757 28.5347C206.741 27.3744 207.129 26.2444 207.855 25.3369C208.674 24.3506 209.746 23.6043 210.958 23.1777C212.467 22.6357 214.063 22.3731 215.668 22.4027C217.334 22.3675 218.99 22.6664 220.537 23.2816C221.754 23.7304 222.845 24.461 223.722 25.4129C224.379 26.0888 224.768 26.9784 224.819 27.9178C224.822 27.9982 224.807 28.0784 224.775 28.1522C224.742 28.226 224.694 28.2916 224.632 28.344C224.571 28.3985 224.499 28.4403 224.421 28.4669C224.343 28.4935 224.26 28.5045 224.178 28.499H218.419C218.113 28.4979 217.817 28.3842 217.59 28.1797C217.385 27.9972 217.15 27.8528 216.894 27.7534C216.496 27.6296 216.079 27.5771 215.663 27.5984C214.468 27.5984 213.87 27.847 213.87 28.344C213.87 28.6106 214.102 28.824 214.566 28.9842C215.482 29.2074 216.414 29.3618 217.353 29.4461V29.4445Z" fill="#012042"/>
<path d="M25.3892 20.7468C29.4622 15.8396 36.981 15.1597 39.9163 20.8347C42.594 26.0101 43.6901 31.8704 43.066 37.6744C42.4419 43.4784 40.1257 48.9653 36.4104 53.4409C32.695 57.9165 27.7474 61.1798 22.1935 62.8179C16.6397 64.456 10.729 64.3953 5.20933 62.6435C-0.843381 60.7246 -1.50017 53.137 2.57284 48.2298L13.9779 34.4883L25.3892 20.7468Z" fill="#012042"/>
<path d="M21.8157 43.2615C17.7427 48.1686 10.2224 48.8486 7.28862 43.1736C4.61096 37.9982 3.51483 32.1378 4.1389 26.3338C4.76297 20.5298 7.07919 15.043 10.7946 10.5674C14.5099 6.09175 19.4575 2.8285 25.0114 1.19041C30.5653 -0.447668 36.4759 -0.386977 41.9956 1.36481C48.0483 3.2837 48.7051 10.8713 44.6321 15.7784L33.227 29.52L21.8157 43.2615Z" fill="#D6FD34"/>
<path fill-rule="evenodd" clip-rule="evenodd" d="M7.25259 43.1355C10.1879 48.8105 17.7067 48.1306 21.7797 43.2235L33.1848 29.4819L40.1884 21.0448L40.053 20.781C37.1177 15.106 29.5989 15.7859 25.5259 20.6931L14.1208 34.4346L7.11719 42.8717L7.25259 43.1355Z" fill="#E5E5E5"/>
</g>
<defs>
<clipPath id="clip0_96_314">
<rect width="226" height="64" fill="white"/>
</clipPath>
</defs>
</svg>
